<svg xmlns="http://www.w3.org/2000/svg" viewBox="0 0 96 96" role="img" aria-labelledby="title">
  <title id="title">Zoho Expense badge</title>
  <defs>
    <linearGradient id="bg" x1="14" x2="82" y1="12" y2="84" gradientUnits="userSpaceOnUse">
      <stop offset="0" stop-color="#7b3ff3"/>
      <stop offset="1" stop-color="#b77afc"/>
    </linearGradient>
  </defs>
  <rect width="96" height="96" rx="24" fill="url(#bg)"/>
  <rect x="7" y="7" width="82" height="82" rx="20" fill="#ffffff" opacity=".07" stroke="#ffffff" stroke-opacity=".12"/>
  <path fill="#ffffff" opacity=".95" d="M28 24h40a8 8 0 0 1 8 8v6l-6 4 6 4v6a8 8 0 0 1-8 8H28a8 8 0 0 1-8-8v-6l6-4-6-4v-6a8 8 0 0 1 8-8Z"/>
  <text x="48" y="58" fill="#7b3ff3" font-family="Source Sans 3, Segoe UI, sans-serif" font-size="28" font-weight="800" text-anchor="middle">E</text>
  <path d="M32 67h32" stroke="#d6bcff" stroke-linecap="round" stroke-width="4"/>
</svg>
